<svg width="18" height="16" viewBox="0 0 18 16" fill="none" xmlns="http://www.w3.org/2000/svg">
<path d="M4.71556 9.33335C4.90041 9.33335 5.07769 9.40358 5.20839 9.52861C5.3391 9.65363 5.41253 9.8232 5.41253 10C5.41253 10.1768 5.3391 10.3464 5.20839 10.4714C5.07769 10.5964 4.90041 10.6667 4.71556 10.6667C4.25792 10.6667 3.80477 10.5805 3.38197 10.4129C2.95917 10.2454 2.575 9.9999 2.2514 9.69037C1.59787 9.06525 1.23071 8.2174 1.23071 7.33334C1.23071 6.44929 1.59787 5.60144 2.2514 4.97632C2.90494 4.3512 3.79132 4.00001 4.71556 4.00001C5.41253 2.43334 7.01556 1.33334 8.89738 1.33334C11.288 1.33334 13.2465 3.10668 13.4277 5.35334L13.7762 5.33334C14.5156 5.33334 15.2247 5.6143 15.7475 6.11439C16.2703 6.61449 16.564 7.29277 16.564 8.00001C16.564 8.70726 16.2703 9.38553 15.7475 9.88563C15.2247 10.3857 14.5156 10.6667 13.7762 10.6667H13.0792C12.8943 10.6667 12.7171 10.5964 12.5864 10.4714C12.4557 10.3464 12.3822 10.1768 12.3822 10C12.3822 9.8232 12.4557 9.65363 12.5864 9.52861C12.7171 9.40358 12.8943 9.33335 13.0792 9.33335H13.7762C14.1459 9.33335 14.5004 9.19287 14.7618 8.94282C15.0232 8.69277 15.1701 8.35363 15.1701 8.00001C15.1701 7.64639 15.0232 7.30725 14.7618 7.0572C14.5004 6.80715 14.1459 6.66668 13.7762 6.66668H12.3822V6.00001C12.3822 5.11596 12.0151 4.26811 11.3615 3.64299C10.708 3.01787 9.82162 2.66668 8.89738 2.66668C7.15495 2.66668 5.72617 3.88001 5.45435 5.46001C5.22435 5.38001 4.97344 5.33334 4.71556 5.33334C4.16102 5.33334 3.62919 5.54406 3.23707 5.91913C2.84494 6.2942 2.62465 6.80291 2.62465 7.33334C2.62465 7.86378 2.84494 8.37249 3.23707 8.74756C3.62919 9.12263 4.16102 9.33335 4.71556 9.33335ZM7.50344 12C7.87313 12 8.22769 12.1405 8.4891 12.3905C8.75052 12.6406 8.89738 12.9797 8.89738 13.3333C8.89738 13.687 8.75052 14.0261 8.4891 14.2762C8.22769 14.5262 7.87313 14.6667 7.50344 14.6667C7.13374 14.6667 6.77919 14.5262 6.51778 14.2762C6.25636 14.0261 6.1095 13.687 6.1095 13.3333C6.1095 12.9797 6.25636 12.6406 6.51778 12.3905C6.77919 12.1405 7.13374 12 7.50344 12ZM10.6398 10.6667C10.9171 10.6667 11.183 10.772 11.3791 10.9596C11.5751 11.1471 11.6853 11.4015 11.6853 11.6667C11.6853 11.9319 11.5751 12.1862 11.3791 12.3738C11.183 12.5613 10.9171 12.6667 10.6398 12.6667C10.3625 12.6667 10.0966 12.5613 9.90055 12.3738C9.70449 12.1862 9.59435 11.9319 9.59435 11.6667C9.59435 11.4015 9.70449 11.1471 9.90055 10.9596C10.0966 10.772 10.3625 10.6667 10.6398 10.6667ZM7.85192 8.00001C8.1292 8.00001 8.39511 8.10537 8.59117 8.2929C8.78723 8.48044 8.89738 8.7348 8.89738 9.00001C8.89738 9.26523 8.78723 9.51958 8.59117 9.70712C8.39511 9.89466 8.1292 10 7.85192 10C7.57465 10 7.30874 9.89466 7.11268 9.70712C6.91662 9.51958 6.80647 9.26523 6.80647 9.00001C6.80647 8.7348 6.91662 8.48044 7.11268 8.2929C7.30874 8.10537 7.57465 8.00001 7.85192 8.00001Z" fill="white"/>
</svg>
