<svg width="19" height="18" viewBox="0 0 19 18" fill="none" xmlns="http://www.w3.org/2000/svg">
  <path d="M10.2838 3.00001L9.53379 5.20051L8.78379 3.00001C8.74335 2.88083 8.7319 2.75373 8.75038 2.62924C8.76885 2.50475 8.81673 2.38645 8.89005 2.28416C8.96336 2.18186 9.06 2.09851 9.17195 2.04101C9.2839 1.98351 9.40794 1.95352 9.53379 1.95352C9.65965 1.95352 9.78369 1.98351 9.89564 2.04101C10.0076 2.09851 10.1042 2.18186 10.1775 2.28416C10.2509 2.38645 10.2987 2.50475 10.3172 2.62924C10.3357 2.75373 10.3242 2.88083 10.2838 3.00001ZM3.53379 8.25001L5.73429 9.00001L3.53379 9.75001C3.41461 9.79045 3.28751 9.8019 3.16302 9.78342C3.03853 9.76495 2.92024 9.71707 2.81794 9.64375C2.71565 9.57044 2.6323 9.47381 2.5748 9.36186C2.5173 9.2499 2.4873 9.12586 2.4873 9.00001C2.4873 8.87415 2.5173 8.75011 2.5748 8.63816C2.6323 8.52621 2.71565 8.42958 2.81794 8.35626C2.92024 8.28295 3.03853 8.23507 3.16302 8.21659C3.28751 8.19811 3.41461 8.20957 3.53379 8.25001ZM8.78379 15L9.53379 12.7995L10.2838 15C10.3242 15.1192 10.3357 15.2463 10.3172 15.3708C10.2987 15.4953 10.2509 15.6136 10.1775 15.7159C10.1042 15.8182 10.0076 15.9015 9.89564 15.959C9.78369 16.0165 9.65965 16.0465 9.53379 16.0465C9.40794 16.0465 9.2839 16.0165 9.17195 15.959C9.06 15.9015 8.96336 15.8182 8.89005 15.7159C8.81673 15.6136 8.76885 15.4953 8.75038 15.3708C8.7319 15.2463 8.74335 15.1192 8.78379 15ZM15.5338 9.74851L13.3333 8.99851L15.5338 8.24851C15.653 8.20807 15.7801 8.19661 15.9046 8.21509C16.0291 8.23357 16.1473 8.28145 16.2496 8.35476C16.3519 8.42808 16.4353 8.52471 16.4928 8.63666C16.5503 8.74861 16.5803 8.87265 16.5803 8.99851C16.5803 9.12436 16.5503 9.2484 16.4928 9.36035C16.4353 9.4723 16.3519 9.56894 16.2496 9.64225C16.1473 9.71557 16.0291 9.76345 15.9046 9.78193C15.7801 9.8004 15.653 9.78895 15.5338 9.74851ZM5.82129 4.22701L6.84654 6.31276L4.76079 5.28751C4.64745 5.23205 4.54898 5.15033 4.47357 5.04915C4.39816 4.94797 4.348 4.83025 4.32725 4.70578C4.30651 4.58131 4.31577 4.45368 4.35428 4.33351C4.39279 4.21334 4.45943 4.1041 4.54866 4.01487C4.63788 3.92564 4.74713 3.85901 4.86729 3.8205C4.98746 3.78199 5.11509 3.77272 5.23956 3.79347C5.36403 3.81422 5.48175 3.86438 5.58293 3.93979C5.68411 4.01519 5.76583 4.11366 5.82129 4.22701ZM4.76079 12.7118L6.84654 11.6865L5.82129 13.7723C5.76583 13.8856 5.68411 13.9841 5.58293 14.0595C5.48175 14.1349 5.36403 14.185 5.23956 14.2058C5.11509 14.2265 4.98746 14.2173 4.86729 14.1788C4.74713 14.1403 4.63788 14.0736 4.54866 13.9844C4.45943 13.8952 4.39279 13.7859 4.35428 13.6658C4.31577 13.5456 4.30651 13.418 4.32725 13.2935C4.348 13.169 4.39816 13.0513 4.47357 12.9501C4.54898 12.8489 4.64745 12.7672 4.76079 12.7118ZM13.2455 13.7723L12.2203 11.6865L14.306 12.7118C14.4194 12.7672 14.5179 12.8489 14.5933 12.9501C14.6687 13.0513 14.7188 13.169 14.7396 13.2935C14.7603 13.418 14.7511 13.5456 14.7126 13.6658C14.674 13.7859 14.6074 13.8952 14.5182 13.9844C14.429 14.0736 14.3197 14.1403 14.1995 14.1788C14.0794 14.2173 13.9517 14.2265 13.8273 14.2058C13.7028 14.185 13.5851 14.1349 13.4839 14.0595C13.3827 13.9841 13.301 13.8856 13.2455 13.7723ZM14.3053 5.28601L12.2188 6.31201L13.2448 4.22551C13.3003 4.11216 13.382 4.01369 13.4832 3.93829C13.5843 3.86288 13.7021 3.81272 13.8265 3.79197C13.951 3.77122 14.0786 3.78049 14.1988 3.819C14.319 3.85751 14.4282 3.92414 14.5174 4.01337C14.6067 4.1026 14.6733 4.21184 14.7118 4.33201C14.7503 4.45218 14.7596 4.57981 14.7388 4.70428C14.7181 4.82875 14.6679 4.94647 14.5925 5.04765C14.5171 5.14883 14.4186 5.23055 14.3053 5.28601ZM9.53379 12.375C7.67304 12.375 6.15879 10.8608 6.15879 9.00001C6.15879 7.13926 7.67304 5.62501 9.53379 5.62501C11.3945 5.62501 12.9088 7.13926 12.9088 9.00001C12.9088 10.8608 11.3945 12.375 9.53379 12.375ZM9.53379 7.12501C8.49954 7.12501 7.65879 7.96576 7.65879 9.00001C7.65879 10.0343 8.49954 10.875 9.53379 10.875C10.568 10.875 11.4088 10.0343 11.4088 9.00001C11.4088 7.96576 10.568 7.12501 9.53379 7.12501Z" fill="white"/>
</svg>
