<svg width="15" height="14" viewBox="0 0 15 14" fill="none" xmlns="http://www.w3.org/2000/svg">
  <path d="M2.86702 5.83332C2.71232 5.83332 2.56394 5.77187 2.45455 5.66247C2.34515 5.55307 2.28369 5.4047 2.28369 5.24999C2.28369 5.09528 2.34515 4.94691 2.45455 4.83751C2.56394 4.72812 2.71232 4.66666 2.86702 4.66666H7.53369C7.84311 4.66666 8.13986 4.54374 8.35865 4.32495C8.57744 4.10616 8.70036 3.80941 8.70036 3.49999C8.70036 3.19057 8.57744 2.89382 8.35865 2.67503C8.13986 2.45624 7.84311 2.33332 7.53369 2.33332C7.21286 2.33332 6.92119 2.46166 6.71119 2.67749C6.6581 2.73414 6.59396 2.7793 6.52272 2.81018C6.45148 2.84105 6.37467 2.85698 6.29703 2.85698C6.21938 2.85698 6.14257 2.84105 6.07133 2.81018C6.00009 2.7793 5.93595 2.73414 5.88286 2.67749C5.65536 2.44999 5.65536 2.07666 5.88286 1.84916C6.30869 1.42916 6.89202 1.16666 7.53369 1.16666C8.15253 1.16666 8.74602 1.41249 9.18361 1.85007C9.62119 2.28766 9.86703 2.88115 9.86703 3.49999C9.86703 4.11883 9.62119 4.71232 9.18361 5.14991C8.74602 5.58749 8.15253 5.83332 7.53369 5.83332H2.86702ZM11.617 6.99999C11.7717 6.99999 11.9201 6.93853 12.0295 6.82914C12.1389 6.71974 12.2004 6.57137 12.2004 6.41666C12.2004 6.26195 12.1389 6.11357 12.0295 6.00418C11.9201 5.89478 11.7717 5.83332 11.617 5.83332C11.4537 5.83332 11.3079 5.89749 11.2029 6.00249C11.1489 6.05657 11.0848 6.09947 11.0142 6.12874C10.9437 6.15801 10.868 6.17308 10.7916 6.17308C10.7152 6.17308 10.6396 6.15801 10.569 6.12874C10.4984 6.09947 10.4343 6.05657 10.3804 6.00249C10.1587 5.77499 10.1587 5.40749 10.3804 5.17999C10.6954 4.86499 11.1329 4.66666 11.617 4.66666C12.0812 4.66666 12.5263 4.85103 12.8545 5.17922C13.1827 5.50741 13.367 5.95253 13.367 6.41666C13.367 6.88079 13.1827 7.32591 12.8545 7.65409C12.5263 7.98228 12.0812 8.16666 11.617 8.16666H3.45036C3.29565 8.16666 3.14728 8.1052 3.03788 7.9958C2.92848 7.88641 2.86702 7.73803 2.86702 7.58332C2.86702 7.42861 2.92848 7.28024 3.03788 7.17084C3.14728 7.06145 3.29565 6.99999 3.45036 6.99999H11.617ZM11.0337 10.5H2.86702C2.71232 10.5 2.56394 10.4385 2.45455 10.3291C2.34515 10.2197 2.28369 10.0714 2.28369 9.91666C2.28369 9.76195 2.34515 9.61357 2.45455 9.50418C2.56394 9.39478 2.71232 9.33332 2.86702 9.33332H11.0337C11.4978 9.33332 11.9429 9.5177 12.2711 9.84589C12.5993 10.1741 12.7837 10.6192 12.7837 11.0833C12.7837 11.5475 12.5993 11.9926 12.2711 12.3208C11.9429 12.6489 11.4978 12.8333 11.0337 12.8333C10.5495 12.8333 10.112 12.635 9.79703 12.32C9.57536 12.0925 9.57536 11.725 9.79703 11.4975C9.85099 11.4434 9.91509 11.4005 9.98566 11.3712C10.0562 11.342 10.1319 11.3269 10.2083 11.3269C10.2847 11.3269 10.3603 11.342 10.4309 11.3712C10.5015 11.4005 10.5656 11.4434 10.6195 11.4975C10.7245 11.6025 10.8704 11.6667 11.0337 11.6667C11.1884 11.6667 11.3368 11.6052 11.4462 11.4958C11.5556 11.3864 11.617 11.238 11.617 11.0833C11.617 10.9286 11.5556 10.7802 11.4462 10.6708C11.3368 10.5614 11.1884 10.5 11.0337 10.5Z" fill="white"/>
  </svg>
